<svg width="700" height="700" viewBox="0 0 700 700" fill="none" xmlns="http://www.w3.org/2000/svg">
<g clip-path="url(#clip0_9_10)">
<path d="M508.411 290.267C470.726 290.267 454.859 324.479 452.379 349.256H558.477C558.988 326.958 549.071 290.267 508.411 290.267ZM238.17 209.942H237.179C232.22 229.279 227.262 252.583 221.311 272.402L195.527 354.71H281.295L255.015 272.402C248.583 252.088 243.129 229.279 238.17 209.942ZM0 0V700H700V0H0ZM321.97 495.527L291.723 400.837H185.624L156.865 495.527H93.8914L200.981 161.365H278.816L387.393 495.527H321.97ZM614.013 391.898H452.379C453.881 435.531 488.081 454.373 526.757 454.373C555.021 454.373 575.351 450.406 593.698 443.465L602.608 485.61C581.783 494.04 553.038 500.485 518.328 500.485C439.997 500.485 393.883 452.39 393.883 378.525C393.883 311.602 434.543 248.631 511.896 248.631C590.227 248.631 616.011 313.075 616.011 366.129C615.997 377.533 615.019 386.444 614.013 391.898Z" fill="#FF3D3F"/>
</g>
<defs>
<clipPath id="clip0_9_10">
<rect width="700" height="700" fill="white"/>
</clipPath>
</defs>
</svg>
