<svg width="700" height="700" viewBox="0 0 700 700" fill="none" xmlns="http://www.w3.org/2000/svg">
<g clip-path="url(#clip0_10_45)">
<path d="M700 0V700H472.325C453.581 700 447.701 689.478 447.701 679.885C447.701 668.126 448.143 629.443 448.143 581.477C449.047 569.308 447.336 557.088 443.127 545.635C438.918 534.182 432.308 523.763 423.74 515.075C503.669 506.145 587.577 475.862 587.577 338.019C588.12 302.391 574.916 267.923 550.707 241.777C561.647 210.837 560.366 176.889 547.126 146.861C547.126 146.861 517.065 137.224 448.541 183.643C389.752 167.527 327.71 167.527 268.921 183.643C200.398 137.224 170.336 146.861 170.336 146.861C157.129 176.899 155.864 210.84 166.799 241.777C142.606 267.936 129.39 302.392 129.885 338.019C129.885 475.508 213.616 506.278 293.28 515.34C280.222 528.095 272.135 545.085 270.469 563.263C261.673 568.22 251.981 571.382 241.955 572.567C231.928 573.751 221.766 572.934 212.058 570.162C202.349 567.391 193.287 562.72 185.397 556.421C177.507 550.122 170.945 542.319 166.092 533.466C160.348 523.531 152.412 515.037 142.89 508.633C133.367 502.228 122.508 498.081 111.141 496.508C111.141 496.508 76.0831 496.065 108.665 518.347C127.77 530.524 141.885 549.139 148.453 570.822C148.453 570.822 169.584 640.584 269.363 618.921C269.54 648.806 269.805 671.353 269.805 679.929C269.805 689.39 263.307 700 245.358 700H0V0H700Z" fill="#FF3D3F"/>
</g>
<defs>
<clipPath id="clip0_10_45">
<rect width="700" height="700" fill="white"/>
</clipPath>
</defs>
</svg>
