<svg width="700" height="700" viewBox="0 0 700 700" fill="none" xmlns="http://www.w3.org/2000/svg">
<g clip-path="url(#clip0_9_28)">
<path fill-rule="evenodd" clip-rule="evenodd" d="M286.46 236.225C281.011 258.169 247.857 384.755 247.857 384.755H329.011C329.011 384.755 292.917 258.169 287.525 236.225H286.46Z" fill="#FF3D3F"/>
<path fill-rule="evenodd" clip-rule="evenodd" d="M0 0V700H700V0H0ZM369.266 540.925L340.915 446.902H236.005L209.737 540.925H123.777L236.006 174.291H344.654L458.323 540.925H369.266ZM573.498 540.925H490.692V275.038H573.498V540.925ZM531.589 242.312C505.535 242.312 488.025 223.731 488.611 200.989C488.025 177.015 505.537 159.075 532.231 159.075C558.926 159.075 575.585 177.014 576.223 200.989C576.223 223.731 558.926 242.312 531.589 242.312Z" fill="#FF3D3F"/>
</g>
<defs>
<clipPath id="clip0_9_28">
<rect width="700" height="700" fill="white"/>
</clipPath>
</defs>
</svg>
