<svg width="700" height="700" viewBox="0 0 700 700" fill="none" xmlns="http://www.w3.org/2000/svg">
<g clip-path="url(#clip0_9_23)">
<path fill-rule="evenodd" clip-rule="evenodd" d="M536.48 645.125C475.405 645.125 435.925 616.007 416.675 577.927L470.225 546.909C484.33 569.939 502.635 586.848 535.08 586.848C562.31 586.848 579.705 573.224 579.705 554.429C579.705 526.149 541.975 515.099 515.34 503.689C467.88 483.494 436.38 458.119 436.38 404.534C436.38 355.219 473.97 317.632 532.735 317.632C574.525 317.632 604.625 332.189 626.22 370.234L575.014 403.132C563.744 382.937 551.53 374.951 532.735 374.951C513.45 374.951 501.236 387.172 501.236 403.132C501.236 422.872 513.45 430.856 541.66 443.071C600.775 468.411 645.505 488.319 645.505 553.489C645.505 612.709 598.99 645.125 536.48 645.125ZM385 545.969C385 614.114 343.035 650.132 284.76 650.132C232.12 650.132 200.585 630 185.08 595H184.555H184.31H184.17L237.684 557.59C248.009 575.895 257.32 588.882 279.86 588.882C301.49 588.882 315 577.928 315 545.063V315H385V545.969ZM0 700H700V0H0V700Z" fill="#FF3D3F"/>
</g>
<defs>
<clipPath id="clip0_9_23">
<rect width="700" height="700" fill="white"/>
</clipPath>
</defs>
</svg>
