<svg width="700" height="700" viewBox="0 0 700 700" fill="none" xmlns="http://www.w3.org/2000/svg">
<g clip-path="url(#clip0_10_47)">
<path d="M700 700H0V0H700V700ZM251.415 210.477C251.431 204.626 250.237 198.834 247.908 193.466C245.579 188.098 242.165 183.269 237.881 179.284C233.596 175.298 228.534 172.242 223.012 170.306C217.489 168.371 211.626 167.598 205.791 168.037C199.997 167.595 194.174 168.345 188.681 170.24C183.187 172.136 178.141 175.137 173.853 179.059C169.565 182.981 166.126 187.74 163.748 193.042C161.371 198.345 160.105 204.078 160.029 209.889C159.954 215.699 161.069 221.464 163.308 226.826C165.547 232.189 168.861 237.036 173.045 241.068C177.23 245.1 182.197 248.232 187.638 250.27C193.08 252.308 198.882 253.209 204.686 252.918H205.261C211.134 253.414 217.046 252.684 222.623 250.776C228.2 248.868 233.32 245.823 237.658 241.834C241.997 237.844 245.46 232.997 247.828 227.6C250.196 222.202 251.417 216.372 251.415 210.477ZM245.977 286.472H164.456V531.919H246.021L245.977 286.472ZM540.318 391.158C540.318 315.782 500.088 280.637 446.375 280.637C431.586 280.031 416.914 283.489 403.952 290.636C390.991 297.783 380.236 308.346 372.856 321.176V286.428H291.202C292.308 309.416 291.202 531.963 291.202 531.963H372.9V394.828C372.576 388.091 373.475 381.351 375.553 374.934C378.601 366.254 384.253 358.726 391.737 353.378C399.222 348.029 408.175 345.12 417.374 345.049C446.994 345.049 458.753 367.595 458.753 400.575V532.007H540.363L540.318 391.158ZM372.325 322.016L372.856 321.176L372.9 322.016H372.325Z" fill="#FF3D3F"/>
</g>
<defs>
<clipPath id="clip0_10_47">
<rect width="700" height="700" fill="white"/>
</clipPath>
</defs>
</svg>
