<svg width="700" height="700" viewBox="0 0 700 700" fill="none" xmlns="http://www.w3.org/2000/svg">
<g clip-path="url(#clip0_9_12)">
<path d="M0 0V700H700V0H0ZM341.104 357.146C319.273 378.992 284.958 389.229 246.196 389.229C235.958 389.229 226.596 388.774 219.465 387.45V500.617H165.112V204.342C184.712 200.769 211.896 198.1 248.879 198.1C288.983 198.1 318.383 206.573 337.546 222.6C355.367 237.3 366.946 260.91 366.946 288.983C366.931 317.494 358.035 341.104 341.104 357.146ZM446.673 505.065C420.408 505.065 396.798 498.838 380.742 489.927L391.417 450.26C403.885 457.858 427.51 465.85 447.11 465.85C471.173 465.85 481.848 456.035 481.848 441.802C481.848 427.102 472.952 419.533 446.235 410.171C403.9 395.456 386.065 372.283 386.517 346.908C386.517 308.598 418.162 278.731 468.49 278.731C492.567 278.731 513.494 284.973 525.963 291.652L515.273 330.415C505.925 325.077 488.542 317.946 469.394 317.946C449.779 317.946 439.104 327.308 439.104 340.681C439.104 354.492 449.356 361.171 476.992 370.971C516.192 385.233 534.45 405.271 534.902 437.369C534.902 476.554 504.16 505.065 446.673 505.065ZM251.096 239.983C235.944 239.983 225.254 241.325 219.465 242.652V344.24C226.144 346.019 235.054 346.471 246.196 346.471C287.19 346.471 312.127 326.419 312.127 291.215C312.127 257.804 288.969 239.983 251.096 239.983Z" fill="#FF3D3F"/>
</g>
<defs>
<clipPath id="clip0_9_12">
<rect width="700" height="700" fill="white"/>
</clipPath>
</defs>
</svg>
