<svg width="700" height="700" viewBox="0 0 700 700" fill="none" xmlns="http://www.w3.org/2000/svg">
<path fill-rule="evenodd" clip-rule="evenodd" d="M0 0H700V700H0V0ZM596.312 349.125C596.312 314.125 554.75 285.688 493.5 266C508.812 202.562 502.25 152.25 473.812 136.938C465.062 132.562 458.5 130.375 449.75 130.375C421.312 130.375 386.312 150.062 351.312 185.062C314.125 150.062 279.125 130.375 250.688 130.375C241.938 130.375 233.188 132.562 226.625 136.938C198.188 152.25 191.625 202.562 206.938 266C145.688 285.688 104.125 314.125 104.125 349.125C104.125 384.125 145.688 412.562 206.938 432.25C191.625 495.688 196 546 226.625 563.5C233.188 567.875 241.938 570.062 250.688 570.062C279.125 570.062 314.125 550.375 349.125 515.375C384.125 550.375 421.312 570.062 447.562 570.062C456.312 570.062 465.062 567.875 471.625 563.5C500.062 546 506.625 495.688 491.312 432.25C554.75 412.562 596.312 381.938 596.312 349.125ZM449.75 154.438C454.125 154.438 458.5 154.438 460.688 156.625C473.812 165.375 480.375 193.812 476 231C474.906 235.375 474.359 240.297 473.812 245.219C473.266 250.141 472.719 255.062 471.625 259.438C451.938 255.062 430.062 250.688 408.188 248.5C395.062 231 381.938 213.5 368.812 200.375C399.438 169.75 430.062 154.438 449.75 154.438ZM416.938 388.5C413.656 395.062 409.828 401.078 406 407.094C402.172 413.109 398.344 419.125 395.062 425.688C387.406 425.688 380.297 426.234 373.188 426.781C366.078 427.328 358.969 427.875 351.312 427.875C336 427.875 320.688 427.875 307.562 425.688C298.812 414.75 292.25 401.625 285.688 388.5L266 349.125L285.688 309.75C292.25 296.625 301 283.5 309.75 272.562C316.057 272.562 322.87 272.057 329.945 271.533L329.953 271.532C337.598 270.965 345.549 270.375 353.5 270.375C368.812 270.375 381.938 270.375 397.25 272.562C402.638 279.298 407.197 286.862 411.947 294.745C414.911 299.664 417.951 304.707 421.312 309.75L441 349.125C432.25 362.25 423.5 375.375 416.938 388.5ZM449.75 377.562C451.938 384.125 454.125 390.141 456.312 396.156C458.5 402.172 460.688 408.188 462.875 414.75L423.5 421.312C427.875 414.75 432.25 408.188 436.625 399.438C438.812 396.156 441 392.328 443.188 388.5C445.375 384.672 447.562 380.844 449.75 377.562ZM349.125 480.375C340.375 471.625 331.625 460.688 322.875 449.75H349.125H375.375C366.625 460.688 357.875 471.625 349.125 480.375ZM274.75 421.312L235.375 414.75C237.562 408.188 239.75 402.172 241.938 396.156C244.125 390.141 246.312 384.125 248.5 377.562C250.688 380.844 252.875 384.672 255.062 388.5C257.25 392.328 259.438 396.156 261.625 399.438C266 408.188 270.375 414.75 274.75 421.312ZM250.688 320.688C246.312 307.562 241.938 294.438 237.562 283.5L276.938 276.938C274.75 280.219 272.562 284.047 270.375 287.875C268.188 291.703 266 295.531 263.812 298.812C257.25 305.375 252.875 314.125 250.688 320.688ZM349.125 217.875C357.875 226.625 366.625 237.562 375.375 248.5H349.125H322.875C331.625 237.562 340.375 226.625 349.125 217.875ZM436.625 298.812C432.25 290.062 427.875 283.5 423.5 276.938L462.875 283.5C458.5 296.625 454.125 309.75 449.75 320.688C447.562 317.406 445.375 313.578 443.188 309.75C441 305.922 438.812 302.094 436.625 298.812ZM224.438 231C220.062 193.812 224.438 165.375 239.75 156.625C241.938 154.438 246.312 154.438 250.688 154.438C270.375 154.438 301 169.75 333.812 202.562C320.688 217.875 307.562 233.188 294.438 250.688C272.562 252.875 250.688 257.25 231 261.625C226.625 250.688 224.438 239.75 224.438 231ZM185.062 397.25C150.062 381.938 128.188 364.438 128.188 346.938C128.188 331.625 150.062 311.938 185.062 296.625C193.812 292.25 202.562 290.062 213.5 287.875C220.062 307.562 226.625 327.25 235.375 346.938C226.625 366.625 217.875 386.312 213.5 406C202.562 406 193.812 401.625 185.062 397.25ZM239.75 541.625C226.625 532.875 220.062 504.438 224.438 467.25C225.234 464.064 225.74 460.588 226.274 456.927L226.274 456.925C227.205 450.533 228.218 443.579 231 436.625C250.688 441 270.375 445.375 292.25 447.562C305.375 465.062 318.5 482.562 333.812 497.875C301 528.5 270.375 546 250.688 546C248.769 545.041 246.851 544.502 245.117 544.016C242.897 543.392 240.978 542.854 239.75 541.625ZM476 467.25C480.375 504.438 476 532.875 460.688 541.625C458.5 543.812 454.125 543.812 449.75 543.812C430.062 543.812 399.438 528.5 366.625 495.688C370.087 491.649 373.701 487.61 377.386 483.491L377.392 483.485C387.679 471.989 398.526 459.867 408.188 445.375C430.062 443.188 451.938 441 469.438 434.438C471.625 447.562 473.812 458.5 476 467.25ZM498.996 403.762L498.994 403.763C495.226 405.076 491.252 406.462 486.938 408.188C480.375 388.5 473.812 368.812 465.062 349.125C473.812 329.438 482.562 307.562 486.938 290.062C493.233 291.322 498.803 293.305 504.067 295.179C507.948 296.562 511.661 297.884 515.375 298.812C550.375 314.125 572.25 331.625 572.25 349.125C572.25 364.438 550.375 384.125 515.375 397.25C510.077 399.899 504.779 401.746 498.996 403.762ZM397.25 349.125C397.25 375.375 377.562 395.062 351.312 395.062C325.062 395.062 305.375 375.375 305.375 349.125C305.375 322.875 325.062 303.188 351.312 303.188C377.562 303.188 397.25 322.875 397.25 349.125Z" fill="#FF3D3F"/>
</svg>
