<svg width="700" height="700" viewBox="0 0 700 700" fill="none" xmlns="http://www.w3.org/2000/svg">
<path fill-rule="evenodd" clip-rule="evenodd" d="M700 0H0V700H700V0ZM204.167 292.017C223.621 214.696 272.213 176.05 350 176.05C422.304 176.05 455.379 209.417 483.963 238.292L484.007 238.336C501.547 256.023 517.406 272.013 539.583 277.521C578.492 287.175 612.5 272.679 641.667 234.033C622.213 311.354 573.621 350 495.833 350C423.58 350 390.474 316.624 361.867 287.784L361.842 287.758C344.313 270.054 328.446 254.042 306.25 248.529C267.371 238.875 233.333 253.371 204.167 292.017ZM58.3334 465.967C77.7875 388.646 126.379 350 204.167 350C276.386 350 309.495 383.345 338.122 412.175L338.188 412.242C355.717 429.946 371.583 445.958 393.779 451.471C432.658 461.125 466.696 446.629 495.863 407.983C476.408 485.304 427.817 523.95 350.029 523.95C277.725 523.95 244.621 490.554 216.038 461.708L215.993 461.664C198.452 443.977 182.594 427.987 160.417 422.479C121.538 412.825 87.5001 427.292 58.3334 465.967Z" fill="#FF3D3F"/>
</svg>
